<svg width="1024" height="1024" viewBox="0 0 1024 1024" fill="none" xmlns="http://www.w3.org/2000/svg">
<path d="M512 327C482.1 327 454 338.6 432.8 359.8C422.382 370.188 414.121 382.533 408.492 396.125C402.863 409.717 399.977 424.288 400 439C400 468.9 411.7 497 432.8 518.2C443.188 528.618 455.533 536.879 469.125 542.508C482.717 548.137 497.288 551.023 512 551C541.9 551 570 539.3 591.2 518.2C612.4 497 624 468.9 624 439C624 409.1 612.4 381 591.2 359.8C570 338.6 541.9 327 512 327ZM854.6 289.1C835.774 245.688 808.63 206.382 774.7 173.4C740.659 140.12 700.529 113.706 656.5 95.6C610.7 76.6 562.1 67 512 67C461.9 67 413.3 76.6 367.5 95.5C323.2 113.8 283.5 140 249.3 173.3C215.392 206.301 188.252 245.602 169.4 289C149.9 334 140 381.8 140 431C140 501.6 156.9 571.9 190.1 639.7C216.8 694.2 254.1 747.3 301.1 797.8C381.4 884 465.6 936.7 489.5 950.8C496.284 954.807 504.021 956.914 511.9 956.9C519.7 956.9 527.4 954.9 534.3 950.8C558.2 936.7 642.4 884 722.7 797.8C769.7 747.4 807 694.2 833.7 639.7C867.1 572 884 501.8 884 431.1C884 381.9 874.1 334.1 854.6 289.1ZM512 615C414.8 615 336 536.2 336 439C336 341.8 414.8 263 512 263C609.2 263 688 341.8 688 439C688 536.2 609.2 615 512 615Z" fill="black"/>
</svg>
