<svg width="917" height="917" viewBox="0 0 917 917" fill="none" xmlns="http://www.w3.org/2000/svg">
<path d="M840.583 328.897V639.989C840.585 671.708 828.45 702.224 806.667 725.279C784.884 748.334 755.104 762.18 723.437 763.975L716.406 764.167H200.594C168.876 764.169 138.359 752.033 115.304 730.25C92.2489 708.467 78.4035 678.687 76.6077 647.02L76.4167 639.989V328.897L445.204 522.079C449.306 524.227 453.869 525.35 458.5 525.35C463.131 525.35 467.694 524.227 471.797 522.079L840.583 328.897ZM200.594 152.833H716.406C747.186 152.83 776.871 164.257 799.702 184.9C822.533 205.543 836.885 233.93 839.972 264.554L458.5 464.384L77.028 264.554C79.9901 235.146 93.3449 207.758 114.692 187.315C136.039 166.871 163.978 154.713 193.487 153.024L200.594 152.833H716.406H200.594Z" fill="black"/>
</svg>
