<svg width="474" height="474" viewBox="0 0 474 474" fill="none" xmlns="http://www.w3.org/2000/svg">
<path d="M429.562 117.713C415.398 123.823 399.984 128.221 384.107 129.934C400.591 120.14 412.935 104.669 418.823 86.4219C403.355 95.6236 386.41 102.076 368.739 105.493C361.353 97.5973 352.42 91.3072 342.498 87.0147C332.575 82.7222 321.874 80.5193 311.062 80.5432C267.319 80.5432 232.14 116.001 232.14 159.512C232.14 165.622 232.88 171.733 234.084 177.611C168.585 174.186 110.168 142.895 71.3315 94.9853C64.255 107.072 60.5467 120.834 60.5924 134.84C60.5924 162.243 74.5254 186.406 95.7721 200.617C83.2511 200.124 71.0233 196.682 60.0832 190.572V191.544C60.0832 229.918 87.2086 261.719 123.36 269.032C116.572 270.795 109.59 271.697 102.577 271.717C97.4385 271.717 92.5781 271.208 87.6715 270.513C97.6699 301.805 126.786 324.533 161.456 325.273C134.331 346.52 100.355 359.018 63.4623 359.018C56.843 359.018 50.7328 358.787 44.3912 358.046C79.3858 380.496 120.907 393.457 165.622 393.457C310.785 393.457 390.217 273.198 390.217 168.816C390.217 165.391 390.217 161.966 389.985 158.54C405.353 147.292 418.823 133.359 429.562 117.713Z" fill="black"/>
</svg>
